<?xml version="1.0" encoding="utf-8"?>
<!-- Generator: Adobe Illustrator 19.2.1, SVG Export Plug-In . SVG Version: 6.00 Build 0)  -->
<svg version="1.1" id="Layer_1" xmlns="http://www.w3.org/2000/svg" xmlns:xlink="http://www.w3.org/1999/xlink" x="0px" y="0px"
	 viewBox="0 0 937.5 172.5" style="enable-background:new 0 0 937.5 172.5;" xml:space="preserve">
<style type="text/css">
	.st0{fill:#66CF28;}
</style>
<title>DZ-type-green</title>
<g id="_Group_">
	<path id="_Compound_Path_" class="st0" d="M89.3,77.9c0.6,6.4,0.9,10.1,0.9,11.2c0.1,3-0.3,6.1-1,9c-0.6,2.2-1.9,4-3.8,5.2
		c3.2,3.4,4.8,8.3,4.8,14.6c0,6.9-2,13.7-5.8,19.5c-4.4,6.9-10.8,12.2-18.3,15.3c-4.6,2-9.4,3.3-14.3,4c-6.2,0.7-12.5,1-18.7,0.9
		H13.4v-30.4c-0.1-3.1,0.1-6.2,0.6-9.2c0.5-2.2,1.6-4.2,3-6c-2.4-2.9-3.6-13.6-3.6-32.3V32.5c13.2,0,26.4,0.9,39.5,2.7
		C65.8,37,73.9,39.3,77.2,42c5,4.2,8.6,9.8,10.3,16.2c1.2,4.3,1.8,8.7,1.7,13.2v1.9C89.2,75.1,89.2,76.6,89.3,77.9z M59,102.1
		c-1.2-0.8-2-2-2.1-3.4c-0.3-2.3-0.5-4.7-0.4-7v-6.9c0.1-3.9-0.3-7.8-1-11.7c-0.7-3.2-2.4-6-4.8-8.2c-0.4,1.8-0.7,3.6-0.9,5.4
		c-0.2,2.2-0.3,5.2-0.3,8.8v5c0,7.2-0.8,12-2.3,14.4c-1.7,2.5-4.3,4.2-7.3,4.8l3.7,0.9c1.5,0.4,3.1,0.5,4.7,0.5v15.6
		c3-1.1,5-2.4,5.9-3.8c0.9-1.4,1.3-3.5,1.3-6.3v-8.1L59,102.1L59,102.1z"/>
	<path id="_Path_" class="st0" d="M152.1,159.5c-1.1-0.4-2.2-0.9-3.3-1.5c-3-1.7-5.1-2.6-6.3-2.6c-0.6-0.1-1.2,0.3-2,1.3
		c-0.5,0.8-1.2,1.3-2.1,1.5c-2.2,0-7.6,0.1-16.3,0.3c-8.7,0.2-16.5,0.3-23.5,0.4c0-8.2,0.3-21.1,1-38.6s1-32.1,1-43.7
		c0-0.7,1.5-2.4,4.5-5.1c1.6-1.5,2.4-2.5,2.4-3.1c-0.9,0.1-1.7,0.2-2.6,0.2c-1,0.2-2,0.4-2.9,0.5c-1.6-10.3-2.4-23.2-2.4-38.8h51.6
		v23h-23v25.8h20.1v20.2h-19.9v37.2h23L152.1,159.5z"/>
	<path id="_Compound_Path_2" class="st0" d="M235.1,120.2c0,15.6-2.4,26-7.3,31.3c-4.9,5.3-14.4,8-28.7,8h-9.8c-5,0-8.7-1-11.1-2.9
		L161,139.2c1.8-2.6,3.9-4.9,6.4-6.8c2.9-1.7,5.2-3.2,7-4.5c-2.4-0.3-4.9-0.5-7.4-0.5c-2,0-4,0.2-6,0.5v-11.3h31.4
		c0,5,0.1,8.4,0.3,10.3c0.4,2.7,1,5.3,2,7.9h9c0.5-1,1-2.1,1.6-3.1c0.3-1.3,0.5-5.2,0.5-11.7c0-9-3.8-14.9-11.5-17.5
		c-14-4.8-21.2-7.3-21.5-7.6c-7.8-5.5-11.7-16.2-11.7-32.1c0-13.2,1.9-22.5,5.8-27.9c5.1-6.9,15.1-10.3,30-10.3
		c16.5,0,25.6,1.9,27.4,5.8c4.1,8.9,7.7,14.5,10.8,16.6V65h-29.3V49.4c-0.8-0.4-1.5-0.9-2.2-1.4c-1.4-0.8-3-1.1-4.6-1
		c-1.6,0-4.1,2.3-7.6,7c-2.3,3.2-4.9,6.1-7.9,8.8c1.6,2,3,4.1,4.4,6.3c1.5,2.5,3.1,4.9,4.5,7.3c0.9,0.6,5.7,1.3,14.3,2.1
		c8.6,0.9,15.1,3.6,19.3,8.2C232,93.3,235.1,104.5,235.1,120.2z M203.7,103.4c0,0.4,0,0.9,0.1,1.3c0.1,0.4,0,0.6-0.3,0.6
		s-1.4-2.1-3.2-6.4s-2.6-6.9-2.6-8v-0.3c0.6,0.4,1.1,0.9,1.4,1.6c1,1.7,2.1,3.3,3.4,4.8C202.7,97.1,203.1,99.3,203.7,103.4
		L203.7,103.4z"/>
	<path id="_Path_2" class="st0" d="M277,159c-3.4-0.8-8.9-1.2-16.5-1.2c-6.1-0.1-12.3,0.4-18.4,1.4c-0.3-3.2-0.7-7.2-0.9-12.1
		s-0.4-9.3-0.4-13.3c0-4.5,0.2-9,0.7-13.7c0.5-4.7,0.7-7.8,0.7-9.4c0-5.3-0.1-9.2-0.3-11.8c-0.2-2.6-0.4-4.9-0.5-6.9
		c0-0.9,0.3-1.8,0.9-2.6c1.4-1.2,2.6-2.3,3.8-3.4c-1.1-0.8-2.4-1.2-3.8-1.2c0-10.6,0.1-18.5,0.4-23.7c0.7-15.3,1-25.2,1-29.7
		c3.3,0,9-0.3,17-0.9c8.1-0.6,13.5-1.2,16.2-1.6c0.2,1.5,0.2,2.9,0.2,4.4v44c-6.9,0.9-12.2,2.6-16.1,5.1c2-0.1,3.9-0.3,5.8-0.7
		c1.7-0.4,3.5-0.6,5.3-0.7c1.7,0.1,3.4,0.4,5,1L277,159L277,159L277,159z"/>
	<path id="_Path_3" class="st0" d="M377.7,84.6c0,3.1,0.1,6,0.2,8.5c0.2,2.6,0.3,4.6,0.4,6.1c0.1,2.4-0.5,4.7-1.7,6.8
		c-1.1,1.6-3.5,3.2-7,4.7c2.3,0.4,4.7,0.6,7,0.6c0.7,4.4,1.1,8.9,1,13.4c0,5-0.3,10.1-1.1,15.1c-0.6,4.1-1.9,8-3.9,11.6
		c-2.2,4.2-5.9,7.3-10.4,8.8c-3.4,1.2-8.2,1.7-14.2,1.7h-39.8c-2.3,0.1-4.7-0.1-7-0.4c-1.9-0.4-3.6-1.1-5.3-2.1
		c-4.5-2.4-7.5-4.9-9-7.6s-2.3-6.2-2.3-10.7c0-4.6,1.3-7,3.8-7.4c6.5-1.1,10.1-1.7,10.6-1.9c-0.8-0.2-1.8-0.4-3-0.7
		c-1.2-0.2-2.4-0.4-3.7-0.4h-5.7c-0.1-1.3-0.2-2.2-0.2-2.9c0.2-7.4,1-14.7,2.3-22c1.2-8.1,3-16.2,5.2-24.1
		c1.1-4.2,3.4-15.4,6.7-33.4c0.9-6.1,3.9-11.7,8.6-15.8c3.4-3,7.8-4.6,12.4-4.5c3.9,0,9.2,1.1,16,3.2s14,4.3,21.6,6.5
		c7.6,2.2,12.8,4.7,15.7,7.5s4.3,7.6,4.3,14.5c0,2.9-0.1,5.5-0.4,7.9c-0.6,4.2-1,7.5-1.2,9.9h-30.5c0-6.9-0.6-11.1-1.9-12.9
		c-1.3-1.7-4.7-2.6-10.4-2.6c-4.9,0-7.8,3-8.6,9.1c-0.3,4.3-0.6,7.5-0.8,9.8s-1.7,8.7-4.5,19.1c-2.4,8.7-3.6,17.7-3.6,26.7h-6
		c2.3,2.2,5.1,3.7,8.1,4.6c3.5,1.1,7.2,1.7,10.9,1.6c3.4,0,6.8-0.3,10.1-0.9c3.6-0.6,6-1.3,7-1.9c0.9-0.4,1.5-1.3,1.5-2.3
		c-0.1-0.9-0.3-1.7-0.7-2.5c-0.4-0.8-0.6-1.7-0.7-2.7c0.1-1.6,0.8-3.1,2.1-4.1c2-1.8,5.3-3.5,9.9-5.1c-1.2-0.4-2.4-0.7-3.6-0.9
		c-0.5-0.2-1.3-1.4-2.6-3.5c-1.8,2-4,3.7-6.5,4.8c-2.1,0.9-4.4,1.4-6.6,1.3c-1.4,0-3.2-0.1-5.6-0.3c-2.4-0.2-3.6-0.2-3.9-0.2
		c-0.4-2-0.7-4-0.9-6c-0.1-1.7-0.2-3.4-0.2-5.3c0-2.8,0.1-4.8,0.2-6.2c0.6-6.9,0.9-11.2,0.9-12.7L377.7,84.6L377.7,84.6z"/>
	<path id="_Path_4" class="st0" d="M458.6,156.4h-13.4c-1.7,0.1-3.3-0.2-4.9-0.6c-1.4-0.5-2.7-1.4-3.7-2.5c-3-3-5.5-7.7-7.7-14.1
		c0-0.1-1.9-6.7-5.7-19.9c-2.1-7.6-4.7-15-7.9-22.1c-0.9,4.2-1.5,8.5-1.7,12.8c-0.5,6-0.7,12.3-0.7,18.9c0,6.1,0.2,11.5,0.5,16.2
		c0.2,3.8,0.8,7.6,1.9,11.2h-29.1V26.6h25.4c0.3,1.4,0.6,2.7,0.7,4.1c0,0.8-0.6,1.9-1.9,3.2c-0.6,0.6-2.1,2.1-4.6,4.5
		c1.7,0.3,3.3,0.5,5,0.5c1.6,0,3.1-0.2,4.6-0.5c3.9,11.3,7.1,21.9,9.8,31.7c1.5,5.9,3.5,11.7,6,17.3c0.6-1.9,1.1-6.3,1.5-13.1
		s0.7-14,0.7-21.5c0-5.4-0.1-10.3-0.4-14.7c-0.1-3.9-0.8-7.8-1.9-11.5h27.4v94.1h-8.4c-2.1,0-4.2,0.1-6.4,0.3
		c-2.3,0.3-4.5,0.8-6.7,1.5c3.9,1.8,8,3.2,12.3,4.2c4.1,0.9,7.1,1.6,9.2,1.9L458.6,156.4L458.6,156.4L458.6,156.4z"/>
	<path id="_Path_5" class="st0" d="M541.8,159.7l-74.1,0.2c-0.9-2.8-1.5-5.8-1.7-8.7c-0.1-1.3,0.3-2.5,1-3.6c2.5-2.4,4.8-4.8,7-7.2
		c-1.5,0-2.9,0.1-4.4,0.3c-1.1,0.2-2.1,0.4-3.2,0.7c0-14.7,2.8-24.6,8.4-29.7c0.8-0.8,4.6-2.4,11.3-4.8c-1.9-0.6-4-1-6-1.2
		c4.9-8.6,9.2-16.3,13-23.2c4.2-7.4,6.9-12.5,7.9-15.1c-1.6-0.5-3.2-0.8-4.8-0.9c-1.8-0.1-4.2-0.2-7.2-0.2c-4.6,0-8.2,0.1-11,0.3
		c-2.8,0.2-5.8,0.5-9.1,0.7c-0.5-4.1-0.8-7.5-1-10.2c-0.2-2.7-0.3-5.7-0.3-9c0-4.7,0.5-9.4,1.3-14.1l72.9-1.2c1.3,4.6,2,9.3,2.1,14
		c0,5-0.9,10-2.7,14.8c-2.1,5.5-4.8,10.7-8,15.6c-4.1,6.4-9.7,17.3-16.8,32.6c-2.1,4.6-4,7.4-5.8,8.6c-0.8,0.6-2.3,0.4-4.6-0.6
		c-1.4-0.7-2.8-1.2-4.3-1.5c-0.2,1.5,0.6,3,2.6,4.5c1,0.7,2,1.5,2.9,2.4c0.3,1-0.9,2.5-3.6,4.5c-1.8,1.2-3.5,2.5-5,3.9
		c4.6-2,9.4-3.4,14.4-4.1c9.5-1.5,19.2-2.1,28.8-2.1L541.8,159.7L541.8,159.7L541.8,159.7z"/>
	<path id="_Path_6" class="st0" d="M584.8,159c-3.4-0.8-8.9-1.2-16.5-1.2c-6.1-0.1-12.3,0.3-18.3,1.4c-0.3-3.2-0.7-7.2-1-12.1
		c-0.3-4.9-0.4-9.3-0.5-13.3c0-4.5,0.2-9,0.7-13.7c0.5-4.7,0.7-7.8,0.7-9.4c0-5.3-0.1-9.2-0.3-11.8c-0.2-2.6-0.4-4.9-0.5-6.9
		c0-0.9,0.3-1.8,0.9-2.6c1.4-1.2,2.6-2.3,3.8-3.4c-1.1-0.8-2.4-1.2-3.8-1.2c0-10.6,0.1-18.5,0.3-23.7c0.7-15.3,1-25.2,1-29.7
		c3.3,0,9-0.3,17-0.9s13.4-1.2,16.2-1.6c0.2,1.5,0.2,2.9,0.2,4.4v44c-6.9,0.9-12.2,2.6-16.1,5.1c2-0.1,3.9-0.3,5.8-0.7
		c1.7-0.4,3.5-0.6,5.3-0.7c1.7,0.1,3.4,0.4,5,1L584.8,159L584.8,159L584.8,159z"/>
	<path id="_Compound_Path_3" class="st0" d="M657.3,156.9h-55.5c1.4-1.6,2.7-3.3,3.8-5.1c0.9-1.5,1.5-3.2,1.8-5
		c-2.5,2.3-4.3,3.9-5.3,4.8c-1.8,1.7-3.4,3.4-5,5.3h-2.2l1.2-43c0-2.1-0.1-3.9-0.2-5.7c-0.1-1.7-0.2-3.4-0.3-5.1c-0.1-2,0.3-4,1-5.8
		c0.8-1.7,2.3-3,4-3.8c-1.7-1.4-3.2-5.2-4.4-11.6c-1.3-7.6-1.9-15.2-1.8-22.9c0-9.8,0.9-19.7,2.7-29.3c3.4,0.7,9.7,1.1,18.7,1.1
		c7.1,0,11.8-0.4,14.2-1.1l-1,87.6c-0.9-0.6-1.9-1.1-2.9-1.7c-0.7-0.4-1.4-0.7-2.2-0.9c-0.6,0.1-1.1,0.2-1.7,0.2l6.9,6.9
		c-3.8,3-6.1,4.7-6.9,5.1c-1.7,0.6-4,1.5-6.8,2.7c1.1,0.4,1.8,1.5,1.7,2.7c0,1.4,0.5,2.3,1.5,2.5l1.1-0.8l1.3-0.9
		c1.9-1.9,5.9-3.9,11.9-5.8c5.3-1.8,10.8-2.8,16.4-2.9c2,0,4,0.2,6,0.7c1.5,0.4,2.7,1.4,3.4,2.7c0.7,1.7,1.1,3.5,1,5.3
		c0,1.5-0.5,6.1-1.5,13.7C657.6,150.1,657.4,153.5,657.3,156.9z M608.4,100.2c-2.3-1.4-4.6-2.8-6.8-4.3l-1-1.4l4.8,2.7
		C606.5,98.1,607.6,99,608.4,100.2L608.4,100.2z"/>
	<path id="_Compound_Path_4" class="st0" d="M731.9,156.9h-55.5c1.4-1.6,2.7-3.3,3.8-5.1c0.9-1.5,1.5-3.2,1.8-5
		c-2.5,2.3-4.3,3.9-5.3,4.8c-1.8,1.7-3.4,3.4-5,5.3h-2.2l1.2-43c0-2.1-0.1-3.9-0.2-5.7c-0.1-1.7-0.2-3.4-0.3-5.1
		c-0.1-2,0.2-4,0.9-5.8c0.8-1.7,2.3-3,4-3.8c-1.7-1.4-3.2-5.2-4.4-11.6c-1.3-7.6-1.9-15.2-1.7-22.9c0-9.8,0.9-19.7,2.7-29.3
		c3.4,0.7,9.7,1.1,18.7,1.1c7.1,0,11.8-0.4,14.2-1.1l-1,87.6c-0.9-0.6-1.9-1.1-2.9-1.7c-0.7-0.4-1.4-0.7-2.2-0.9
		c-0.6,0.1-1.1,0.2-1.7,0.2l6.9,6.9c-3.8,3-6,4.7-6.9,5.1c-1.7,0.6-4,1.5-6.8,2.7c1.1,0.3,1.9,1.5,1.7,2.7c0,1.4,0.5,2.3,1.5,2.5
		l1.1-0.8l1.3-0.9c1.9-1.9,5.9-3.9,11.9-5.8c5.3-1.8,10.8-2.8,16.4-2.9c2,0,4,0.2,6,0.7c1.5,0.4,2.7,1.4,3.4,2.7
		c0.7,1.7,1.1,3.5,1,5.3c0,1.5-0.5,6.1-1.5,13.7C732.2,150.1,731.9,153.5,731.9,156.9z M683,100.2c-2.3-1.4-4.6-2.8-6.9-4.3l-1-1.4
		l4.8,2.7C681.1,98.1,682.1,99,683,100.2z"/>
	<path id="_Compound_Path_5" class="st0" d="M841.1,159.3c-3.3,0.6-7.5,1.2-12.4,1.8c-4,0.6-8.1,0.9-12.1,0.9
		c-3.1,0-5.2-0.3-6.2-0.8c-1.1-0.6-2.1-1.4-2.7-2.5c-0.8-8.4-2.3-14.8-4.6-19.2c-2.3-4.4-6.3-6.6-12.2-6.6c-2.3,0-4.2-0.1-5.8-0.2
		s-3.1-0.2-4.5-0.4c-2.7,0-4.5,1.1-5.3,3.2c-0.8,2.1-1.8,8.2-3.1,18.2c-0.2,2-1.4,3.7-3.3,4.5c-2.4,1-5.1,1.4-7.7,1.3
		c-1.7,0-4.8-0.2-9.3-0.5s-8-0.5-10.6-0.5c0-2.9,0.7-6.9,2.2-12.2c4.3-15.5,6.6-23.7,6.8-24.3c2.1,0,4.2,0,6.3-0.3
		c1.6-0.3,3.1-0.8,4.5-1.6c-1-0.3-2-0.6-3.1-0.8c-1-0.2-2-0.3-3.1-0.3h-3.8c0-2.3,1-7.7,2.9-16.3c3.7-16.1,6.6-30.1,8.9-42
		c1.3-7.3,3.1-14.5,5.3-21.6c0.8-2.6,2-5,3.8-7c0.8-0.4,1.7-0.6,2.6-0.9c3-0.8,6.1-1.2,9.3-1.2c5.9,0.2,11.8,0.9,17.7,2.1
		c0,1.8,2.5,10.9,7.4,27.3c4.3,14.7,9.2,30.4,14.7,47.1c5.5,16.8,9,26.9,10.5,30.3c-0.8-0.1-1.5-0.3-2.2-0.6
		c-0.2-0.1-0.4-0.2-0.7-0.3c-1,0.4-2,0.6-3.1,0.9c3,1.3,5.5,3.5,7.2,6.2C835.6,143.6,837.5,148.9,841.1,159.3z M791.7,103.3
		c-0.4-3.2-1-6.3-1.9-9.4c-1.8-6.3-2.8-9.7-2.9-10.3c-1.4,2.4-2.4,6-3,10.9s-2,8.5-4,10.9C783.7,104,787.7,103.3,791.7,103.3
		L791.7,103.3z M796.7,125.1c0,0.1-0.5-0.1-1.5-0.7s-1.8-1-2.4-1.4c0.3,0.2,0.7,0.3,1.1,0.4C794.9,123.8,795.8,124.3,796.7,125.1
		L796.7,125.1z M828.2,136.1c0.6,0.1,1.1,0.2,1.5,0.3c0.4,0.1,0.7,0.1,1.1,0.1c0-0.3-5.5-2.3-16.5-5.8c-11-3.5-17.1-5.3-18.1-5.3
		c0.5,0.4,1,0.6,1.5,0.9c8.8,3.5,13.4,5.4,13.9,5.5C817.1,133.4,822.6,134.9,828.2,136.1L828.2,136.1z"/>
	<path id="_Compound_Path_6" class="st0" d="M921.6,120.2c0,15.6-2.4,26-7.3,31.3c-4.9,5.3-14.4,8-28.7,8h-9.8c-5,0-8.7-1-11.1-2.9
		c-5.3-5.3-11-11.1-17.2-17.3c1.8-2.6,3.9-4.9,6.3-6.8c2.9-1.7,5.2-3.2,7-4.5c-2.4-0.3-4.9-0.5-7.4-0.5c-2,0-4,0.2-6,0.5v-11.3h31.4
		c0,5,0.1,8.4,0.2,10.3c0.4,2.7,1,5.3,2,7.9h9c0.5-1,1-2.1,1.6-3.1c0.3-1.3,0.5-5.2,0.5-11.7c0-9-3.8-14.9-11.5-17.5
		c-14-4.8-21.2-7.3-21.5-7.6c-7.8-5.5-11.7-16.2-11.7-32.1c0-13.3,1.9-22.5,5.8-27.8c5.1-6.9,15.1-10.3,30-10.3
		c16.5,0,25.6,1.9,27.4,5.8c4.1,8.9,7.8,14.5,10.9,16.6V65h-29.3V49.4c-0.8-0.4-1.5-0.9-2.2-1.4c-1.4-0.8-3-1.1-4.6-1
		c-1.6,0-4.1,2.3-7.5,7c-2.3,3.2-5,6.2-7.9,8.8c1.6,2,3,4.1,4.4,6.3l4.5,7.3c0.9,0.6,5.7,1.3,14.3,2.1s15.1,3.6,19.3,8.2
		C918.6,93.3,921.6,104.5,921.6,120.2z M890.3,103.4c0,0.4,0,0.9,0.1,1.3c0.1,0.4,0,0.6-0.3,0.6s-1.4-2.1-3.2-6.4s-2.6-6.9-2.6-8
		v-0.3c0.2,0,0.7,0.5,1.4,1.6c1,1.7,2.1,3.3,3.3,4.8C889.3,97.1,889.7,99.3,890.3,103.4L890.3,103.4z"/>
</g>
<g id="_Group_2">
	<path id="_Compound_Path_7" class="st0" d="M921.5,18.8V12h-2.6v-1.2h6.5V12h-2.6v6.8L921.5,18.8L921.5,18.8z M926.4,18.8v-8h2
		l2,6.4l2-6.4h1.9v8H933v-6.7l-2,6.7h-1.2l-2.2-6.8v6.8L926.4,18.8L926.4,18.8z"/>
</g>
</svg>
